<?xml version="1.0" encoding="UTF-8" standalone="no"?>
<!-- Uploaded to: SVG Repo, www.svgrepo.com, Generator: SVG Repo Mixer Tools -->

<svg
   fill="#000000"
   width="800px"
   height="800px"
   viewBox="0 0 24 24"
   version="1.1"
   id="svg4"
   sodipodi:docname="icon-default.svg"
   inkscape:version="1.2.1 (9c6d41e410, 2022-07-14)"
   xmlns:inkscape="http://www.inkscape.org/namespaces/inkscape"
   xmlns:sodipodi="http://sodipodi.sourceforge.net/DTD/sodipodi-0.dtd"
   xmlns="http://www.w3.org/2000/svg"
   xmlns:svg="http://www.w3.org/2000/svg">
  <defs
     id="defs8" />
  <sodipodi:namedview
     id="namedview6"
     pagecolor="#ffffff"
     bordercolor="#000000"
     borderopacity="0.25"
     inkscape:showpageshadow="2"
     inkscape:pageopacity="0.0"
     inkscape:pagecheckerboard="0"
     inkscape:deskcolor="#d1d1d1"
     showgrid="false"
     inkscape:zoom="1.09625"
     inkscape:cx="248.57469"
     inkscape:cy="400.4561"
     inkscape:window-width="1920"
     inkscape:window-height="1057"
     inkscape:window-x="-8"
     inkscape:window-y="-8"
     inkscape:window-maximized="1"
     inkscape:current-layer="svg4" />
  <path
     d="M12,14 C9.790861,14 8,12.209139 8,10 C8,7.790861 9.790861,6 12,6 C14.209139,6 16,7.790861 16,10 C16,12.209139 14.209139,14 12,14 Z M12,13 C13.6568542,13 15,11.6568542 15,10 C15,8.34314575 13.6568542,7 12,7 C10.3431458,7 9,8.34314575 9,10 C9,11.6568542 10.3431458,13 12,13 Z M12.3391401,20.8674017 C12.1476092,21.0441994 11.8523908,21.0441994 11.6608599,20.8674017 C7.23483091,16.7818365 5,13.171725 5,10 C5,6.13400675 8.13400675,3 12,3 C15.8659932,3 19,6.13400675 19,10 C19,13.171725 16.7651691,16.7818365 12.3391401,20.8674017 Z M18,10 C18,6.6862915 15.3137085,4 12,4 C8.6862915,4 6,6.6862915 6,10 C6,12.7518356 7.98660341,16.0353377 12,19.8163638 C16.0133966,16.0353377 18,12.7518356 18,10 Z"
     id="path2" />
  <path
     style="fill:#7fff2a;stroke:#7fff2a;stroke-width:31.927;stop-color:#000000"
     d="M 371.74721,631.92702 C 356.87574,617.00114 338.814,598.22121 331.61002,590.19384 271.94675,523.71139 233.73387,464.68109 214.47152,409.24123 201.49155,371.88298 197.75245,339.06785 202.60876,305.13113 214.52805,221.83698 278.1239,154.62436 360.9628,137.7713 c 64.59785,-13.14203 132.85134,7.55565 179.74066,54.50585 46.29552,46.35563 66.72634,110.57516 55.78264,175.33973 -11.10244,65.70396 -53.7435,139.78913 -128.10819,222.57696 -16.05828,17.87717 -66.67926,68.87115 -68.36738,68.87115 -0.67335,0 -13.39185,-12.21208 -28.26332,-27.13797 z m 50.60171,-166.8129 c 10.63317,-1.62111 27.4524,-6.97503 37.05475,-11.79531 75.11857,-37.70878 97.69436,-133.27758 47.39609,-200.63922 -19.91634,-26.67284 -50.23981,-45.08467 -84.45084,-51.27695 -10.99933,-1.9909 -33.69851,-1.9909 -44.69784,0 -17.01976,3.08062 -35.05806,9.87491 -48.34663,18.21022 -32.30093,20.26087 -54.85702,53.81214 -61.02784,90.7764 -2.9193,17.48715 -2.62936,33.85635 0.90442,51.06107 5.79756,28.22626 23.01098,56.64001 45.38987,74.92392 30.60189,25.00222 67.59345,34.86632 107.77802,28.73987 z"
     id="path306"
     transform="scale(0.03)" />
</svg>
