<?xml version="1.0" encoding="UTF-8" standalone="no"?>
<svg
   viewBox="0 0 512 512"
   version="1.1"
   id="svg4"
   sodipodi:docname="waze.svg"
   inkscape:version="1.2.1 (9c6d41e410, 2022-07-14)"
   xmlns:inkscape="http://www.inkscape.org/namespaces/inkscape"
   xmlns:sodipodi="http://sodipodi.sourceforge.net/DTD/sodipodi-0.dtd"
   xmlns="http://www.w3.org/2000/svg"
   xmlns:svg="http://www.w3.org/2000/svg">
  <defs
     id="defs8" />
  <sodipodi:namedview
     id="namedview6"
     pagecolor="#ffffff"
     bordercolor="#000000"
     borderopacity="0.25"
     inkscape:showpageshadow="2"
     inkscape:pageopacity="0.0"
     inkscape:pagecheckerboard="0"
     inkscape:deskcolor="#d1d1d1"
     showgrid="false"
     inkscape:zoom="0.15139957"
     inkscape:cx="85.8655"
     inkscape:cy="1155.8817"
     inkscape:window-width="1920"
     inkscape:window-height="1057"
     inkscape:window-x="-8"
     inkscape:window-y="-8"
     inkscape:window-maximized="1"
     inkscape:current-layer="svg4" />
  <circle
     style="fill:#33ccff;fill-opacity:1;stroke-width:1.25244;stop-color:#000000"
     id="path6655"
     cx="256"
     cy="256"
     r="256" />
  <!--!Font Awesome Free 6.7.2 by @fontawesome - https://fontawesome.com License - https://fontawesome.com/license/free Copyright 2025 Fonticons, Inc.-->
  <g
     id="g6601"
     transform="matrix(0.68097885,0,0,0.72894608,81.675638,69.389804)">
    <path
       d="m 502.2,201.7 c 14.5,85.8 -31,167.9 -113.2,208.1 13,34.1 -12.4,70.2 -48.3,70.2 a 51.7,51.7 0 0 1 -51.6,-49 c -6.4,0.2 -64.2,0 -76.3,-0.6 A 51.7,51.7 0 0 1 159,479.9 C 125.1,478.5 101,445.1 112,412 74.8,398.9 39.5,377.1 12.4,341.2 -0.6,323.9 11.9,299.4 33.2,299.4 79.5,299.4 65.4,245.2 76.4,189.1 94.8,95.2 193.1,32 288.1,32 390.6,32 485.3,102.7 502.2,201.7 Z M 373.5,388.3 c 42,-19.2 81.3,-56.7 96.3,-102.1 40.5,-123.1 -64.2,-228 -181.7,-228 -83.5,0 -170.3,55.4 -186.1,136 -9.5,48.9 5,131.4 -68.8,131.4 25,33 58.4,52.5 93.8,63.9 24.7,-21.8 63.9,-15.5 79.8,14.3 14.2,1 79.2,1.2 87.9,0.8 a 51.7,51.7 0 0 1 78.8,-16.4 z M 205.1,187.1 c 0,-34.7 50.8,-34.8 50.8,0 0,34.8 -50.8,34.7 -50.8,0 z m 116.6,0 c 0,-34.7 50.9,-34.8 50.9,0 0,34.8 -50.9,34.8 -50.9,0 z m -122.6,70.7 c -3.4,-16.9 22.2,-22.2 25.6,-5.2 l 0.1,0.3 c 4.1,21.4 29.9,44 64.1,43.1 35.7,-0.9 59.3,-22.2 64.1,-42.8 4.5,-16.1 28.6,-10.4 25.5,6 -5.2,22.2 -31.2,62 -91.5,62.9 -42.6,0 -80.9,-27.8 -87.9,-64.3 z"
       id="path2" />
    <path
       style="fill:#f9f6ed;fill-opacity:1;stroke-width:0.55163;stop-color:#000000"
       d="m 213.94581,403.85246 -6.73379,-0.1838 -1.97514,-3.30223 c -2.54539,-4.2556 -9.87913,-11.93031 -14.21996,-14.8811 -4.6753,-3.17814 -10.90912,-6.04253 -16.4582,-7.56241 -6.32742,-1.73307 -19.58922,-1.86371 -25.63826,-0.25256 -7.60761,2.02627 -13.70707,5.07398 -21.10369,10.54487 -1.10961,0.82072 -1.75711,0.69049 -8.18776,-1.64675 C 98.717354,378.96807 80.246851,368.99305 64.560451,356.82862 57.732916,351.53403 41.246189,335.38568 36.916979,329.7525 l -2.768298,-3.60211 3.942763,-0.35264 c 24.498835,-2.19115 37.990657,-10.64268 47.583023,-29.80687 6.567564,-13.12107 9.613176,-28.60989 12.39796,-63.05131 1.791474,-22.15647 2.807753,-31.13439 4.460773,-39.40707 12.00529,-60.08148 66.41831,-111.075797 137.66628,-129.016866 28.83976,-7.262192 60.10466,-7.766543 89.92141,-1.450574 29.52476,6.254117 58.31661,19.889508 82.92134,39.27031 7.31379,5.76097 24.3822,22.91293 29.7516,29.89724 19.10159,24.84661 30.45323,51.31407 34.17822,79.68985 4.04678,30.8271 -1.32407,63.9693 -14.85359,91.65793 -16.02204,32.78962 -45.10344,61.80331 -80.19107,80.00435 l -8.05664,4.17922 -4.59022,-3.01993 c -9.3179,-6.1303 -19.43482,-8.8426 -30.96354,-8.30119 -8.36991,0.39306 -12.69411,1.48532 -20.23197,5.11043 -9.399,4.52018 -16.27752,10.67692 -21.64612,19.37473 l -2.0735,3.35934 -36.84291,-0.12553 c -20.26359,-0.0691 -39.87311,-0.20825 -43.57668,-0.30935 z m 80.93862,-81.89212 c 32.89811,-2.59495 58.42416,-16.71895 74.32923,-41.12764 5.96575,-9.15533 10.32553,-20.5549 9.76112,-25.52253 -0.91965,-8.09423 -8.6831,-13.49857 -16.64665,-11.58814 -5.49463,1.31815 -8.05024,4.143 -10.28449,11.36803 -5.84261,18.89362 -24.65315,34.03464 -48.32683,38.89935 -23.95451,4.92241 -47.64313,-1.27135 -64.04726,-16.74617 -7.09318,-6.69135 -11.74525,-14.22575 -14.09008,-22.82 -1.48939,-5.45891 -2.22809,-6.97433 -4.4099,-9.04677 -3.34223,-3.17469 -8.65346,-4.2248 -13.70831,-2.71033 -2.85146,0.85432 -6.48399,3.93182 -7.72311,6.54306 -1.29065,2.71986 -1.21434,8.49317 0.17867,13.51633 9.33889,33.67583 44.5529,58.41662 85.04287,59.74973 1.31802,0.0434 5.78416,-0.18832 9.92474,-0.51492 z M 237.50518,212.50905 C 249.27348,209.4438 256,200.20644 256,187.1106 c 0,-15.7469 -10.30445,-26.29232 -25.66428,-26.26445 -13.20047,0.0239 -23.34723,8.82378 -25.15415,21.81508 -2.38518,17.1488 8.57317,30.51548 25.15415,30.68233 2.09993,0.0211 5.32619,-0.3544 7.16946,-0.83451 z m 119.58273,-0.82642 c 6.34257,-2.42364 11.55709,-7.63951 13.97076,-13.97442 1.56361,-4.10385 2.12588,-12.46363 1.15332,-17.14763 -2.48914,-11.98814 -12.38674,-19.75466 -25.11458,-19.70708 -13.50877,0.0505 -23.40201,8.61661 -25.31893,21.92252 -2.04864,14.22032 5.75776,26.74654 18.69771,30.00254 3.72537,0.93739 12.8693,0.33413 16.61172,-1.09593 z"
       id="path860" />
  </g>
</svg>
